<?xml version="1.0" encoding="UTF-8"?>
<svg id="Layer_1" xmlns="http://www.w3.org/2000/svg" version="1.1" viewBox="0 0 439.6 88.9">
  <!-- Generator: Adobe Illustrator 29.8.2, SVG Export Plug-In . SVG Version: 2.1.1 Build 3)  -->
  <defs>
    <style>
      .st0 {
        fill: #fff;
      }

      .st1 {
        fill: #a4ce39;
      }

      .st2 {
        fill: #12ede2;
      }
    </style>
  </defs>
  <g>
    <g>
      <path class="st2" d="M84.1,3.4c.3.7.7,1.7,1.1,3,.8,2.8.6,3.3,1.3,5.1.6,1.6,1.4,4,3.5,5.1.9.5,2,.5,4.3.7,1.7,0,2.5,0,4.8,0h4.7c0,2.2-.3,3.9-.5,5.1-.5,2.5-.6,3.9-.8,6.8,0,.3,0,.7.2,1,.3.5.8.6,2.4,1.3.7.3-.6-.2.8.4,2.8,1.2,4.1,1.8,5.1,2.2,1.4.6,3.6,1.6,6.9,3.2-.4.4-1,1-1.8,1.7-2.3,2.1-2.9,2.6-4.1,3.8-1.9,2-3,3.1-2.7,4.3,0,.2,0,.3,1.3,1.7,1.4,1.6,2.5,2.6,2.5,2.6.8.8,1.4,1.4,2.6,2.5.8.7,1.7,1.5,2.7,2.4-.5.4-1.3,1-2.2,1.7-.5.4-.6.5-2.1,1.7-2.1,1.7-2.6,2.1-2.9,2.4-1.2,1-1.1.8-1.4,1.1-1.6,1.3-2.4,2-2.8,3-.2.4-.3,1,0,3.1.3,2.4.8,4.1,1.5,6.3.3,1,.7,2.6,1.3,4.6-5.2-.5-10.5-1-15.7-1.5-1.2,1-3.4,2.7-6.8,3.5-1.6.4-3,.7-4.6.3-3.1-.8-4.7-3.5-8.4-4.8-.9-.3-1.8-.4-2.5-.4-2.1,0-3.6,1.2-5,2.2-1.9,1.4-4.4,3.5-7.3,6.3-1.9-2.4-3.8-4.2-5.2-5.4-3.1-2.7-4.7-3.2-6-3.4h-2.1c-5.3.7-6.4,4.5-10.9,5-2.2.3-4.2-.5-5.6-1-2-.7-3.4-1.7-4.4-2.4-5.1.5-10.2.9-15.3,1.4.2-2.1.5-3.8.7-4.9.5-2.9.9-5,.9-5,.6-3.3.6-3.6.4-4.2-.3-.8-1.3-1.5-3.3-3-1-.8-1.6-1.2-1.6-1.2-1.3-.9-3.5-2.5-7.1-5.3.4-.3.8-.6,1.2-.9,3.2-2.5,5.9-5.1,8.3-7.7,0-.2.2-.5.2-.8v-.4c-.3-1.2-6.8-7.5-6.8-7.5-.5-.4-1.1-1.1-1.9-2,2.7-1.4,5-2.2,6.7-2.7,0,0,2.2-.7,7.6-3.3,0,0,.4-.2.7-.5.4-.5.6-1.1.6-1.3.4-2.3-1-9.7-1-9.7,0-.6-.3-1.5-.5-2.7,3.3.2,5.7.5,7.3.8,0,0,1.2,0,3.8.4,1.9.2,2.7.3,3.4-.2.8-.5,1-1.3,1.3-2.3,1.2-4.2,1.8-6.3,2-6.8.3-1.3.8-3.2,1.6-5.5,2.1,1.3,4.2,2.5,6.3,3.8,2.3,1.4,4.6,2.7,6.9,4.1.3.2,1,.5,1.8.4.5,0,1-.3,1.2-.5,1.6-1,2.9-2.9,3-3.1,1.3-1.9,2.6-3.7,3.9-5.5.8-1.1,1.4-2,1.8-2.5,1.3,1.3,2.3,2.5,3,3.2,1.3,1.6,5.7,7.2,6.2,7.9,0,0,0,0,.2.2,0,0,.3.2.8.3,2.9.2,11.4-5.8,11.4-5.8.7-.5,1.9-1.3,3.5-2.4h-.4ZM99.1,21.2h-5.1c-3.3,0-5,0-5.7-.2-2.9-1.2-4.3-4.3-5.1-6.2-.7-1.7-1-3.2-1.2-4.2-1.2.8-3,2-5.3,3.1-4.2,2.2-6.4,3.2-8.4,2.6-1.6-.5-2.9-2.2-5.6-5.7-1.3-1.7-2.3-3.2-3-4.2-.8,1.2-1.9,2.8-3.2,4.8-1.2,1.7-1.7,2.5-2.7,3.3-.6.5-1.7,1.4-3,1.8-2.3.7-4.3-.4-8.1-2.3-1.5-.8-3.4-1.9-5.6-3.4-.3,1.2-.9,2.9-1.5,4.9-1.9,5.7-2.4,6.2-2.8,6.6-1.3,1-3.8.8-8.6.5-1.7,0-3-.3-3.9-.4.2,1,.4,2.4.5,4.2.2,3.6.3,5.4-.7,6.9-.5.7-1,1.2-5.7,3.3-2.1,1-3.9,1.7-5.2,2.2.8.6,1.9,1.5,3,2.8,1.5,1.8,3.1,3.6,2.8,5.8,0,.9-.5,1.5-2.9,4.3-1.7,1.9-3.2,3.5-4.3,4.7.9.7,2.2,1.6,3.6,2.8,4.5,3.6,5,4.8,5.1,5.5.3,1,0,1.4-.4,4.5-.4,2.5-.5,4.6-.6,5.8,2.3-.2,4.5-.3,6.8-.5-.5-.9-1.1-2.4-1.4-4.1-1-5.5,1.6-10,2.9-12.3,3.6-6.4,9.1-9.3,10.5-10,2-1,7.3-3.6,13.8-2.3,1.6.3,7.3,1.5,10.5,6.3.5.8.9,1.5,1.1,2,.3-.8.9-1.9,1.8-3,1.6-1.9,3.3-2.8,4.9-3.6,1.2-.6,3.7-1.8,7-2.2,6.5-.7,11.5,2.4,13.3,3.5,5,3.1,7.4,7.3,8.5,9.2,1.3,2.2,3,5.5,3.2,10,0,2.8-.5,5-1,6.5,2.1.2,4.2.3,6.3.5-.2-.9-.4-2.2-.6-3.8-.5-3.8-.7-5.8,0-7.4.6-1.5,1.9-2.6,4.5-4.7,1.6-1.3,2.9-2.2,3.9-2.8-1.6-1.6-2.9-3.1-3.9-4.2-1.6-1.8-2-2.4-2.3-3.3-.5-1.9.1-3.7.3-4.2.4-.9.9-1.6,2-3,1-1.3,1.8-2.2,2.5-2.9-2.3-.8-4.1-1.7-5.5-2.3-4.7-2.3-5.4-3.3-5.8-4-.6-1.3-.6-2.7-.5-4.2,0-.7.1-1.1.7-4.5.1-.7.3-1.7.4-2.4h-.3ZM59.3,61.6c-.5-.7-1.3-1.8-2.2-3.1-.2-.4-.4-.6-.4-.6-1.5-2.2-6.1-8-13-8.1-2.9,0-5.9.9-8.8,3-7.4,5.3-15.1,17.8-4.2,23.9,5.5,3,5.8-.3,10.1-2.4,2.4-1.2,4.3-1.7,6.2-1.7s4.6,1.2,6.1,2.1c1.6.9,2.7,1.9,3.5,2.6.3-.2,1.1-.8,2.4-.8s2.3.8,2.5,1c2.1-1.9,4.1-3,5.5-3.6,1.3-.6,2.5-1.1,4.2-1.2,1.4,0,2.7.2,4.5.7,5.3,1.8,6.9,7.3,13.1,2.9,5.3-3.8,5.7-8.4,3-14.1-3.7-7.7-12.9-14.6-21.7-11.3-2.2.8-4.2,2.4-4.2,2.4-1.9,1.3-2.9,3-4.3,5-.9,1.3-1.7,2.5-2.4,3.4h.1Z"/>
      <path class="st2" d="M43.6,79.9c3.9-.9,8.2.2,7.4,5-.4,2.4-5.9,1.9-8,1.7-3.6-.4-2.8-5.9.6-6.7Z"/>
      <path class="st2" d="M70.3,79.9c3.9-.9,8.2.2,7.4,5-.4,2.4-5,1.9-7,1.7-5.1-.4-3.7-6-.4-6.7Z"/>
      <path class="st2" d="M81.5,62.4h-4.6c0-.2,0-.9-.6-1.4-.6-.6-1.4-.6-1.9-.6-.9,0-1.5.4-1.7.5-.8.5-1.2,1.2-1.3,1.5h-4.5c0-.7.2-2.9,2-4.6,1.1-1.1,2.3-1.4,3.2-1.7.8-.2,2.9-.8,5.2,0,.8.3,2.1.8,3.1,2.1,1.2,1.7,1,3.6,1,4.1h.1Z"/>
      <path class="st2" d="M51.5,62.4h-4.7c0-.3,0-.9-.4-1.5-.9-1.2-3.4-1.2-4.3,0-.4.5-.4,1.1-.4,1.5h-4.7c0-.8,0-2.1.7-3.4,1.8-3.3,6.2-3.4,6.6-3.4.7,0,2.6,0,4.3,1.3.2,0,1.1.8,1.8,2,.8,1.4,1,2.8,1,3.5h0Z"/>
    </g>
    <path class="st2" d="M153.4,39.6h18.5v5.6h-25.1V9.8h6.6v29.8ZM201.7,31.8c0,.5,0,1.3-.1,1.9h-21.2c.8,3.9,4,6.5,8.8,6.5s5.4-1,7.3-2.9l3.4,3.9c-2.4,2.9-6.2,4.4-10.9,4.4-9.1,0-14.9-5.8-14.9-13.9s5.9-13.8,14-13.8,13.7,5.5,13.7,14h-.1ZM195.7,29.4c-.5-3.9-3.5-6.6-7.6-6.6s-7.1,2.6-7.7,6.6h15.3ZM218.7,40.3c-2.4,0-3.7-1.4-3.7-4v-12.8h7.2v-5.1h-7.2v-8.6h-6.3v8.6h-4.5v5.1h4.5v13c0,6,3.4,9.1,9.3,9.1s4.6-.6,6.1-1.8l-1.8-4.5c-1,.8-2.2,1.1-3.5,1.1h-.1ZM233.1,25.9c0-1.8,1.8-3,5.7-3s5.2.5,7.7,2l2.4-4.8c-2.4-1.5-6.5-2.3-10.1-2.3-7.3,0-11.9,3.3-11.9,8.4,0,10.8,16.7,5.9,16.7,11.1s-1.7,3-5.7,3-7-1.1-9.4-2.7l-2.4,4.8c2.4,1.7,6.9,3,11.4,3,7.6,0,12.2-3.3,12.2-8.3,0-10.6-16.7-5.7-16.7-11.2h0ZM290.7,27.4c0,10.6-7.8,17.7-19.3,17.7h-15.5V9.7h15.5c11.5,0,19.3,7.1,19.3,17.7ZM284,27.4c0-7.3-5.1-12.1-13-12.1h-8.6v24.3h8.6c7.9,0,13-4.8,13-12.1h0ZM322.4,31.8c0,.5,0,1.3-.1,1.9h-21.2c.8,3.9,4,6.5,8.8,6.5s5.4-1,7.3-2.9l3.4,3.9c-2.4,2.9-6.2,4.4-10.9,4.4-9.1,0-14.9-5.8-14.9-13.9s5.9-13.8,14-13.8,13.7,5.5,13.7,14h0ZM316.4,29.4c-.5-3.9-3.5-6.6-7.6-6.6s-7.1,2.6-7.7,6.6h15.3ZM339.5,12.3c1.3,0,2.5.5,3.5,1.1l1.8-4.8c-1.4-1-3.5-1.5-5.7-1.5-6.3,0-9.7,3.7-9.7,9.4v1.7h-4.5v5.1h4.5v21.8h6.3v-21.8h7.2v-5.1h-7.4v-1.6c0-2.9,1.4-4.4,4-4.4h0ZM372.2,31.8c0,.5,0,1.3-.1,1.9h-21.2c.8,3.9,4,6.5,8.8,6.5s5.4-1,7.3-2.9l3.4,3.9c-2.4,2.9-6.2,4.4-10.9,4.4-9.1,0-14.9-5.8-14.9-13.9s5.9-13.8,14-13.8,13.7,5.5,13.7,14h0ZM366.1,29.4c-.5-3.9-3.5-6.6-7.6-6.6s-7.1,2.6-7.7,6.6h15.3ZM393.6,17.8c-3.9,0-7.2,1.3-9.3,3.8v-3.5h-6v27h6.3v-13.7c0-5.4,3-8.1,7.5-8.1s6.4,2.3,6.4,7.1v14.7h6.3v-15.5c0-8.1-4.8-11.8-11.3-11.8h.1ZM439.6,7.6v37.5h-6.1v-3.5c-2.1,2.6-5.3,3.8-9,3.8-7.8,0-13.7-5.5-13.7-13.9s5.8-13.8,13.7-13.8,6.6,1.2,8.7,3.6V7.4h6.3v.2ZM433.4,31.6c0-5.2-3.5-8.4-8-8.4s-8,3.3-8,8.4,3.5,8.4,8,8.4,8-3.3,8-8.4Z"/>
  </g>
  <g>
    <path class="st1" d="M298.8,67.2h0c0-.3-.1-.6-.3-.8h0l-12.1-7h0c-.2,0-.4,0-.6,0h-.5l-12,7h0c-.2.2-.3.5-.3.7s0,0,0,0h0v13.9c0,.4.2.8.6,1l12,7h.2l12-7c.4-.2.6-.6.6-1v-13.9h0l.4.2ZM277.2,66.7l8.2-4.7h.5l8.2,4.7c.3.2.3.7,0,.9l-8.2,4.7h-.5l-8.2-4.7c-.3-.2-.3-.7,0-.9ZM284.2,84.7c0,.4-.4.7-.8.5l-8.2-4.7c-.2,0-.3-.3-.3-.5v-9.5c0-.4.4-.7.8-.5l8.2,4.7c.2,0,.3.3.3.5v9.5ZM296.3,80c0,.2,0,.4-.3.5l-8.2,4.7c-.3.2-.8,0-.8-.5v-9.5c0-.2,0-.4.3-.5l8.2-4.7c.3-.2.8,0,.8.5v9.5Z"/>
    <g>
      <path class="st0" d="M317.9,79.9v-4.4c0-.2-.1-.3-.3-.3h-3.9c-.2,0-.3,0-.3.3v4.4c0,.2-.1.3-.3.3h-2.4c-.2,0-.3,0-.3-.3v-11.5c0-.2.1-.3.3-.3h2.4c.2,0,.3,0,.3.3v4c0,.2.1.3.3.3h3.9c.2,0,.3,0,.3-.3v-4c0-.2.1-.3.3-.3h2.4c.2,0,.3,0,.3.3v11.5c0,.2-.1.3-.3.3h-2.4c-.2,0-.3,0-.3-.3Z"/>
      <path class="st0" d="M327.3,77.8l-.7,2.2c0,0-.1.2-.3.2h-2.5c-.2,0-.3-.2-.3-.4l3.9-11.5c0,0,.1-.2.3-.2h3.4c.1,0,.2,0,.3.2l3.9,11.5c0,.2,0,.4-.3.4h-2.5c-.1,0-.2,0-.3-.2l-.6-2.2c0,0-.1-.2-.3-.2h-4c-.1,0-.2,0-.3.2h.3ZM330.8,74.4c-.4-1.4-.9-2.9-1.2-4.4h0c-.4,1.5-.8,3-1.2,4.4v.5c-.2.2,0,.4.1.4h2.2c.2,0,.3-.2.3-.4v-.4h-.2Z"/>
      <path class="st0" d="M348,72.5h-2.5c-.1,0-.3,0-.3-.2-.2-1.2-1-1.8-2.2-1.8s-2.6,1.4-2.6,3.8,1,3.8,2.5,3.8,2-.7,2.2-1.9.1-.2.3-.2h2.5c.2,0,.3.2.3.3-.4,2.8-2.4,4.4-5.3,4.4s-5.6-2.4-5.6-6.3,2.2-6.3,5.6-6.3,5,1.7,5.2,4.3c0,.2-.1.3-.3.3l.2-.2Z"/>
      <path class="st0" d="M361.7,80.2h-3s-.2,0-.2,0l-3.6-5.4h0v5.3c0,.2-.1.3-.3.3h-2.4c-.2,0-.3,0-.3-.3v-11.5c0-.2.1-.3.3-.3h2.4c.2,0,.3,0,.3.3v4.9h0l3.5-5.1s.1,0,.2,0h2.8c.2,0,.4.3.2.5l-3.9,5.1v.3l4.3,5.7c.1.2,0,.5-.2.5h0Z"/>
      <path class="st0" d="M369.9,69.8v10.1c0,.2-.1.3-.3.3h-1c-.2,0-.3,0-.3-.3v-10.1c0-.2-.1-.3-.3-.3h-3.6c-.2,0-.3,0-.3-.3v-.8c0-.2.1-.3.3-.3h9.3c.2,0,.3,0,.3.3v.8c0,.2-.1.3-.3.3h-3.6c-.2,0-.3,0-.3.3h0Z"/>
      <path class="st0" d="M384.9,79.9v-5c0-.2-.1-.3-.3-.3h-5.6c-.2,0-.3,0-.3.3v5c0,.2-.1.3-.3.3h-1c-.2,0-.3,0-.3-.3v-11.5c0-.2.1-.3.3-.3h1c.2,0,.3,0,.3.3v4.6c0,.2.1.3.3.3h5.6c.2,0,.3,0,.3-.3v-4.6c0-.2.1-.3.3-.3h1c.2,0,.3,0,.3.3v11.5c0,.2-.1.3-.3.3h-1c-.2,0-.3,0-.3-.3Z"/>
      <path class="st0" d="M392.9,69.8v3.3c0,.2.1.3.3.3h5.3c.2,0,.3,0,.3.3v.8c0,.2-.1.3-.3.3h-5.3c-.2,0-.3,0-.3.3v3.5c0,.2.1.3.3.3h5.8c.2,0,.3,0,.3.3v.8c0,.2-.1.3-.3.3h-7.4c-.2,0-.3,0-.3-.3v-11.5c0-.2.1-.3.3-.3h7.2c.2,0,.3,0,.3.3v.8c0,.2-.1.3-.3.3h-5.7c-.2,0-.3,0-.3.3h.1Z"/>
      <path class="st0" d="M407.9,68.1c3,0,4.4,1.3,4.4,3.1s-.7,2.3-2.1,2.8h0c1.6.4,2.4,1.3,2.4,2.8s-1.6,3.4-4.4,3.4h-4.7c-.2,0-.3,0-.3-.3v-11.5c0-.2.1-.3.3-.3h4.4ZM406.1,72.7c0,.2.1.3.3.3h1.2c1.3,0,1.9-.4,1.9-1.3s-.5-1.3-1.8-1.3h-1.3c-.2,0-.3,0-.3.3v2h0ZM406.1,77.6c0,.2.1.3.3.3h1.3c1.4,0,1.9-.4,1.9-1.3s-.6-1.4-2-1.4h-1.3c-.2,0-.3,0-.3.3v2.2h.1Z"/>
      <path class="st0" d="M427.1,74.2c0,3.9-2.2,6.3-5.8,6.3s-5.9-2.4-5.9-6.3,2.2-6.3,5.9-6.3,5.8,2.4,5.8,6.3ZM418.5,74.2c0,2.4,1,3.8,2.8,3.8s2.8-1.4,2.8-3.8-1-3.8-2.8-3.8-2.8,1.4-2.8,3.8Z"/>
      <path class="st0" d="M439.4,80.2h-2.8c-.1,0-.2,0-.3-.2l-2.1-4h0l-2.1,4s-.1.2-.3.2h-2.8c-.2,0-.4-.2-.2-.4l3.4-5.6v-.3l-3.2-5.3c-.1-.2,0-.4.2-.4h2.7c.1,0,.2,0,.3.2l2,3.9h0l2-3.9s.1-.2.3-.2h2.7c.2,0,.4.2.2.4l-3.2,5.3v.3l3.4,5.6c.1.2,0,.4-.2.4Z"/>
    </g>
  </g>
  <g>
    <path class="st0" d="M147,68.1h2l5.9,8.7v-8.7h2v12.1h-1.8l-6.1-8.9v8.9h-2v-12.1h0Z"/>
    <path class="st0" d="M159.2,74.2c0-3.9,2.1-6.3,5.5-6.3s5.4,2.3,5.4,6.3-2.1,6.2-5.4,6.2-5.5-2.3-5.5-6.2ZM167.9,74.2c0-3.2-1.2-4.6-3.2-4.6s-3.2,1.4-3.2,4.6,1.2,4.5,3.2,4.5,3.2-1.3,3.2-4.5Z"/>
    <path class="st0" d="M170.8,68.1h2l2.5,8.8,2.5-8.8h1.5l2.5,8.8,2.5-8.8h2l-3.6,12.1h-1.7l-2.5-8.6-2.5,8.6h-1.7l-3.5-12.1Z"/>
    <path class="st0" d="M192,68.1h4.3c2.6,0,4.6,1.4,4.6,3.9s-1.7,3.8-4.3,3.8h-2.5v4.4h-2.1v-12.1ZM196.5,74.2c1.4,0,2.4-.9,2.4-2.3s-1.1-2.2-2.5-2.2h-2.4v4.5h2.5Z"/>
    <path class="st0" d="M205.3,68.1h2.2l4.4,12.1h-2l-1.1-3h-4.6l-1.1,3h-2.1l4.4-12.1h0ZM208.2,75.4l-1.8-5.3-1.8,5.3h3.7,0Z"/>
    <path class="st0" d="M213.7,68.1h4.9c2.8,0,4.1,1.4,4.1,3.5s-1.1,2.9-2.2,3.4l2.3,5.3h-2.1l-2.1-4.9h-2.8v4.9h-2v-12.1h0ZM218.2,73.7c1.5,0,2.5-.8,2.5-2s-.9-2-2.2-2h-2.7v4h2.4Z"/>
    <path class="st0" d="M227.9,70h-3.8v-1.8h9.5v1.8h-3.6v10.3h-2v-10.3h-.1Z"/>
    <path class="st0" d="M238.7,74.2c0-3.9,2.1-6.3,5.5-6.3s5.4,2.3,5.4,6.3-2.1,6.2-5.4,6.2-5.5-2.3-5.5-6.2ZM247.3,74.2c0-3.2-1.2-4.6-3.2-4.6s-3.2,1.4-3.2,4.6,1.2,4.5,3.2,4.5,3.2-1.3,3.2-4.5Z"/>
    <path class="st0" d="M251.8,68.1h7.9v1.7h-5.9v3.5h5.2v1.7h-5.2v5.2h-2.1v-12.1h.1Z"/>
  </g>
</svg>